<svg id="visual" viewBox="0 0 540 960" width="540" height="960" xmlns="http://www.w3.org/2000/svg"
     xmlns:xlink="http://www.w3.org/1999/xlink" version="1.1">
    <rect x="0" y="0" width="540" height="960" fill="#ffffff"></rect>
    <defs>
        <linearGradient id="grad1_0" x1="0%" y1="0%" x2="100%" y2="100%">
            <stop offset="30%" stop-color="#ffffff" stop-opacity="1"></stop>
            <stop offset="70%" stop-color="#ffffff" stop-opacity="1"></stop>
        </linearGradient>
    </defs>
    <defs>
        <linearGradient id="grad2_0" x1="0%" y1="0%" x2="100%" y2="100%">
            <stop offset="30%" stop-color="#ffffff" stop-opacity="1"></stop>
            <stop offset="70%" stop-color="#ffffff" stop-opacity="1"></stop>
        </linearGradient>
    </defs>
    <g transform="translate(540, 0)">
        <path d="M0 540C-87 513.9 -174 487.7 -257.5 446C-341 404.3 -421.1 346.9 -467.7 270C-514.2 193.1 -527.1 96.5 -540 0L0 0Z"
              fill="#FBAE3C"></path>
    </g>
    <g transform="translate(0, 960)">
        <path d="M0 -540C88.8 -517.1 177.7 -494.2 261 -452.1C344.3 -409.9 422.1 -348.6 467.7 -270C513.2 -191.4 526.6 -95.7 540 0L0 0Z"
              fill="#FBAE3C"></path>
    </g>
</svg>