<?xml version="1.0" standalone="no"?>
<!DOCTYPE svg PUBLIC "-//W3C//DTD SVG 20010904//EN"
 "http://www.w3.org/TR/2001/REC-SVG-20010904/DTD/svg10.dtd">
<svg version="1.0" xmlns="http://www.w3.org/2000/svg"
 width="4168.000000pt" height="4168.000000pt" viewBox="0 0 4168.000000 4168.000000"
 preserveAspectRatio="xMidYMid meet">

<g transform="translate(0.000000,4168.000000) scale(0.100000,-0.100000)"
fill="#000000" stroke="none">
<path d="M34118 31619 c-16 -9 -18 -27 -18 -137 l0 -127 528 -301 527 -301 3
-477 c1 -262 6 -476 10 -476 31 0 32 27 32 625 l0 600 -526 300 c-289 165
-529 301 -533 302 -3 1 -14 -2 -23 -8z"/>
<path d="M11625 31306 c-123 -72 -1373 -804 -5350 -3133 l-1040 -609 -3 -2542
c-1 -1398 0 -2542 3 -2542 3 0 72 38 154 85 81 47 153 85 160 85 8 0 11 -199
11 -769 l0 -769 34 -26 c19 -14 37 -26 40 -26 3 0 6 543 6 1208 l0 1207 1350
770 1350 770 0 116 c0 111 1 116 23 126 13 6 217 123 455 261 238 138 434 247
437 242 3 -4 2 -69 -2 -144 l-6 -135 -111 -64 c-331 -189 -763 -441 -777 -453
-13 -12 -15 -58 -15 -356 1 -300 3 -343 16 -342 13 1 550 305 2853 1619 l557
318 0 2593 c0 1427 -1 2594 -2 2593 -2 0 -66 -37 -143 -83z m-1415 -3364 l0
-138 -662 -384 c-365 -211 -793 -459 -953 -552 l-290 -168 -3 62 c-2 35 -1 99
3 143 l7 80 151 87 c84 47 510 294 947 547 437 253 796 461 798 461 1 0 2 -62
2 -138z m-3479 -385 c-6 -6 -243 -147 -528 -313 l-518 -303 -3 126 c-2 120 -1
128 19 144 12 8 114 70 228 136 113 66 341 199 506 296 l300 176 3 -126 c1
-75 -1 -130 -7 -136z m727 -752 c-21 -19 -1147 -675 -1158 -675 -7 0 -10 44
-8 131 l3 130 585 343 585 342 3 -130 c2 -96 -1 -133 -10 -141z m-898 131 l0
-134 -429 -251 c-236 -138 -436 -254 -445 -257 -15 -6 -16 7 -14 127 l3 133
440 258 c242 142 441 258 443 258 1 0 2 -60 2 -134z m2468 -233 l-3 -136 -530
-309 c-291 -169 -564 -328 -605 -352 -41 -24 -176 -103 -300 -175 l-225 -131
-3 141 c-1 78 -1 143 0 144 16 12 1655 955 1661 955 4 0 6 -61 5 -137z m1942
-137 l0 -134 -212 -123 c-117 -68 -277 -160 -356 -206 -79 -46 -145 -83 -148
-83 -2 0 -3 62 -2 137 l3 137 350 203 c193 112 353 203 358 203 4 0 7 -60 7
-134z m-4752 -358 l-3 -133 -190 -112 c-104 -61 -224 -132 -265 -156 -41 -25
-78 -43 -82 -40 -5 2 -8 60 -8 127 0 100 3 126 16 137 21 17 517 308 527 309
4 0 6 -60 5 -132z m822 -41 l0 -133 -656 -384 c-361 -212 -667 -391 -681 -398
l-24 -13 3 132 3 133 215 126 c118 70 352 207 520 305 168 98 375 220 460 271
85 51 156 93 158 93 1 1 2 -59 2 -132z m1976 -192 c-8 -5 -68 -41 -133 -78
-65 -37 -212 -123 -328 -191 l-210 -123 -3 38 c-3 31 -11 44 -43 70 -35 28
-43 30 -65 20 -14 -6 -210 -117 -435 -247 -226 -129 -417 -238 -425 -241 -12
-5 -15 2 -12 36 l3 41 830 479 830 480 3 -137 c2 -112 0 -139 -12 -147z m1124
111 l0 -133 -117 -68 c-232 -134 -409 -238 -500 -291 -50 -30 -96 -54 -102
-54 -7 0 -11 45 -11 133 l0 133 357 207 c197 114 361 207 365 207 5 0 8 -60 8
-134z"/>
<path d="M25265 31209 c-27 -16 -286 -168 -575 -337 l-525 -307 0 -145 0 -144
122 -71 c68 -38 123 -73 123 -77 0 -3 -56 -39 -125 -80 l-125 -73 0 -142 0
-142 125 -71 c69 -39 125 -75 125 -80 0 -4 -56 -41 -125 -81 l-125 -73 0 -141
0 -140 140 -80 c77 -44 140 -83 140 -87 0 -4 -33 -23 -74 -42 -41 -20 -76 -39
-78 -44 -1 -5 -30 -24 -63 -43 l-60 -35 0 -143 0 -143 225 -131 c840 -487 934
-539 955 -529 11 5 132 73 268 151 136 77 252 141 258 141 5 0 23 -7 38 -15
26 -13 30 -13 51 9 l22 24 -21 7 c-32 10 -26 19 28 46 42 21 58 38 121 136 75
118 102 143 147 143 33 0 46 -8 61 -36 22 -42 -5 -92 -139 -261 -37 -47 -59
-84 -59 -100 0 -22 -2 -24 -16 -12 -14 11 -18 11 -29 -4 -7 -9 -17 -17 -24
-17 -22 0 -11 -17 24 -36 19 -10 35 -23 35 -29 0 -5 -7 -70 -15 -143 -15 -122
-15 -134 0 -149 13 -13 15 -26 9 -67 -9 -62 -8 -731 1 -785 l6 -38 -42 -7
c-53 -8 -69 -21 -69 -53 0 -18 8 -27 33 -37 41 -18 173 -40 186 -31 17 10 31
76 32 145 0 46 3 59 9 44 9 -24 41 -38 118 -53 89 -18 111 -15 117 17 4 15 10
34 15 43 4 9 3 68 -3 135 -6 65 -11 263 -11 440 -1 264 2 324 13 338 10 12 16
53 19 134 2 64 15 191 28 282 52 347 50 317 27 348 -11 15 -32 33 -47 40 l-26
13 1 118 c2 164 -23 205 -144 231 -27 5 -57 14 -67 20 -13 7 -22 4 -35 -10
-19 -21 -35 -26 -35 -11 0 5 63 44 140 87 l139 78 3 144 3 144 -127 71 c-70
40 -126 76 -125 81 2 5 57 40 123 78 l119 68 5 144 5 144 -128 73 c-70 40
-126 76 -125 81 2 4 57 39 123 77 l120 68 5 145 5 146 -140 78 c-76 44 -168
95 -205 115 -36 20 -240 136 -453 258 -214 121 -392 220 -395 220 -4 -1 -29
-14 -57 -30z m470 -410 c223 -127 405 -235 403 -240 -2 -5 -182 -112 -400
-238 l-397 -229 -401 232 c-220 127 -399 236 -398 241 3 9 764 462 780 464 4
1 190 -103 413 -230z m-1099 -793 c10 -8 16 -18 12 -22 -11 -10 23 -33 50 -34
12 0 39 -10 60 -23 20 -13 157 -92 304 -176 l267 -152 303 173 c167 95 314
173 328 173 31 1 70 14 70 24 0 4 -5 12 -11 18 -7 7 -1 14 20 23 26 10 35 10
62 -6 18 -11 34 -24 35 -29 3 -9 -760 -456 -790 -463 -14 -3 -800 448 -805
462 -3 9 48 46 65 46 5 0 19 -6 30 -14z m1501 -620 c-2 -6 -182 -113 -400
-239 l-396 -229 -348 201 c-191 110 -375 216 -408 236 l-60 37 39 20 c31 16
44 18 62 9 14 -6 21 -16 18 -24 -5 -14 34 -37 63 -37 13 0 434 -235 503 -280
8 -6 26 -16 40 -23 14 -7 36 -20 50 -29 26 -18 26 -17 335 159 206 117 319
176 336 175 34 -3 70 24 50 37 -11 7 -8 12 15 24 26 14 31 13 66 -7 21 -11 36
-25 35 -30z m-1478 -570 l24 -13 -23 -13 c-23 -12 -23 -13 -4 -27 12 -9 32
-12 54 -9 28 4 48 -3 110 -38 41 -24 95 -54 120 -68 25 -14 120 -69 211 -122
92 -53 171 -96 177 -96 5 0 143 76 307 169 282 161 299 169 320 155 18 -12 28
-12 49 -3 32 15 33 22 4 42 l-23 15 29 13 c26 12 33 11 74 -12 25 -14 47 -30
49 -35 2 -5 -177 -113 -396 -240 l-400 -231 -398 229 c-219 127 -402 233 -406
238 -8 7 69 59 88 59 6 0 21 -6 34 -13z m1609 -8 c7 -7 12 -22 12 -35 0 -20 4
-22 30 -17 41 9 63 -11 56 -48 -3 -17 1 -42 11 -63 13 -26 23 -35 47 -37 24
-2 32 -8 34 -27 9 -63 -19 -86 -90 -74 -35 5 -38 8 -38 39 0 29 -4 34 -22 34
-52 1 -68 35 -68 149 0 90 5 102 28 79z m66 -1594 c13 -93 27 -197 31 -231 l7
-62 -39 -7 c-21 -4 -47 -11 -57 -17 -19 -9 -19 -5 -13 139 5 129 34 360 44
350 2 -2 15 -79 27 -172z"/>
<path d="M24986 30769 c-186 -109 -341 -200 -343 -203 -3 -2 8 -11 24 -19 27
-14 31 -13 103 29 41 24 80 47 85 51 6 5 21 14 35 20 26 13 35 19 108 66 24
15 45 27 48 27 3 0 66 36 141 81 l136 81 41 -23 c23 -13 59 -33 81 -46 22 -13
58 -32 80 -43 22 -11 65 -36 95 -55 30 -19 61 -34 68 -35 6 0 12 -4 12 -9 0
-5 17 -16 38 -25 20 -9 57 -28 82 -42 25 -15 60 -35 78 -46 18 -10 44 -26 58
-35 21 -14 29 -14 50 -3 13 8 23 17 22 21 -2 6 -406 240 -648 376 l-55 31
-339 -199z"/>
<path d="M27448 31205 c-104 -26 -197 -120 -269 -270 -72 -150 -93 -247 -93
-430 0 -127 3 -163 23 -232 23 -81 71 -176 114 -221 32 -34 115 -70 177 -77
l55 -7 -30 17 c-210 115 -276 536 -138 884 32 82 98 184 149 233 44 42 130 88
165 88 19 1 21 3 9 9 -25 15 -115 18 -162 6z"/>
<path d="M27605 31102 c-57 -10 -94 -30 -143 -75 -68 -65 -113 -140 -154 -258
-31 -91 -32 -99 -33 -259 0 -185 10 -235 67 -330 153 -254 438 -106 529 275
28 121 24 337 -10 430 -53 146 -157 235 -256 217z m205 -321 c22 -43 9 -67
-148 -270 -86 -113 -161 -206 -167 -207 -5 -2 -43 41 -82 94 -76 100 -88 136
-57 166 23 23 43 20 69 -11 13 -16 34 -40 47 -55 l23 -27 125 164 c107 142
129 165 152 165 17 0 31 -7 38 -19z"/>
<path d="M35493 30881 c-22 -19 -23 -25 -23 -194 l0 -176 740 -422 740 -423 0
-708 0 -708 25 16 25 16 0 887 -1 886 -736 420 c-405 231 -739 421 -742 422
-3 1 -16 -6 -28 -16z"/>
<path d="M22806 30735 c-16 -8 -34 -14 -40 -13 -31 5 -98 -16 -120 -39 -40
-40 -49 -92 -42 -234 4 -94 2 -138 -8 -173 -12 -39 -12 -46 0 -46 8 0 14 10
14 23 0 36 25 63 91 99 l61 33 -5 87 c-3 51 -2 90 4 93 16 10 46 -4 56 -28
l11 -22 12 27 c11 23 16 25 39 17 39 -15 109 -2 122 23 16 31 -3 87 -45 127
-41 40 -104 51 -150 26z"/>
<path d="M33523 30078 c9 -310 66 -514 175 -630 l25 -28 -29 9 c-41 12 -93 39
-118 62 -17 16 -21 17 -28 5 -4 -8 -4 -25 1 -38 49 -130 391 -110 391 22 0 20
-2 19 -43 -8 -23 -17 -59 -34 -80 -40 l-37 -10 38 46 c39 47 80 131 103 210
l13 43 -42 42 -42 42 0 -49 c0 -27 -5 -79 -11 -115 -13 -73 -66 -221 -79 -221
-5 0 -16 35 -25 78 -9 42 -20 88 -25 102 -12 34 -30 182 -30 244 0 29 -7 79
-15 111 -16 62 -128 305 -141 305 -4 0 -4 -82 -1 -182z"/>
<path d="M34547 29874 c-4 -4 -7 -245 -7 -535 l0 -527 307 -176 c169 -97 313
-174 320 -171 10 3 13 117 13 537 l0 533 -301 170 c-165 94 -306 171 -313 173
-6 1 -15 0 -19 -4z m386 -494 c5 -4 7 -17 5 -28 -3 -19 -19 -12 -163 72 -137
80 -160 97 -163 120 -3 25 4 22 155 -65 87 -50 162 -95 166 -99z m40 -114
c116 -66 137 -82 137 -102 0 -13 -3 -24 -7 -24 -4 0 -71 37 -150 82 -120 69
-143 86 -143 106 0 14 5 22 13 20 6 -2 74 -38 150 -82z m76 49 c42 -25 61 -42
61 -55 0 -26 -2 -26 -71 12 -45 25 -59 38 -59 55 0 13 2 23 4 23 3 0 32 -16
65 -35z m-271 -54 c8 -4 12 -17 10 -29 -3 -21 -5 -20 -65 14 -51 29 -63 40
-63 60 l0 26 53 -31 c28 -17 58 -35 65 -40z m-28 -108 c0 -13 -3 -23 -6 -23
-3 0 -33 14 -65 31 -50 27 -59 36 -59 60 l0 28 65 -37 c50 -28 65 -42 65 -59z
m216 15 c132 -76 144 -85 144 -112 0 -27 -1 -28 -22 -14 -13 8 -80 47 -150 87
-108 62 -128 77 -128 97 0 13 3 24 7 24 3 0 71 -37 149 -82z m-20 -101 c121
-70 160 -98 162 -115 2 -12 0 -22 -5 -22 -4 0 -80 42 -168 94 -118 69 -161 99
-163 115 -2 11 1 21 6 21 5 0 81 -42 168 -93z m-163 -22 c132 -76 157 -94 157
-113 0 -13 -4 -22 -9 -20 -4 2 -78 44 -164 93 -132 76 -157 94 -157 113 0 13
4 22 9 20 4 -1 78 -43 164 -93z m5 -151 l4 -26 -64 36 c-49 27 -64 41 -66 62
l-4 26 64 -36 c49 -27 64 -41 66 -62z m310 -33 c8 -4 12 -17 10 -29 -3 -21 -5
-20 -65 14 -51 29 -63 40 -63 60 l0 26 53 -31 c28 -17 58 -35 65 -40z m-380
-7 c21 -12 32 -26 32 -41 0 -13 -3 -23 -6 -23 -4 0 -33 15 -65 32 -51 28 -59
37 -59 61 l0 29 33 -20 c17 -10 47 -28 65 -38z m248 -26 c120 -68 144 -86 144
-105 0 -13 -4 -23 -9 -23 -5 0 -73 37 -150 82 -116 68 -141 86 -141 105 0 13
3 23 6 23 4 0 71 -37 150 -82z m-20 -101 c122 -71 160 -97 162 -115 2 -12 1
-22 -3 -22 -12 0 -320 182 -327 194 -11 15 -10 36 1 36 5 0 80 -42 167 -93z"/>
<path d="M23021 29799 c-23 -19 -23 -20 -5 -40 11 -12 29 -25 42 -30 14 -5 22
-16 21 -26 -1 -10 1 -30 6 -46 16 -59 -50 -80 -82 -27 -10 17 -43 50 -73 74
-54 42 -56 43 -155 49 -55 4 -114 11 -132 16 -31 9 -32 9 -48 -37 -20 -58 -30
-149 -21 -193 6 -33 61 -100 117 -142 34 -27 173 -94 209 -102 16 -4 30 -10
30 -14 0 -4 -22 -20 -49 -34 l-49 -27 -68 40 c-93 55 -102 60 -159 96 -27 17
-70 43 -95 56 -25 14 -102 60 -172 102 -69 42 -131 76 -137 76 -8 0 -10 -161
-9 -571 l3 -571 190 -115 c105 -64 248 -151 319 -195 80 -48 135 -77 145 -73
9 3 157 90 329 193 l312 187 2 175 c2 186 2 189 -1 346 l-1 100 -120 155 c-66
85 -120 157 -120 161 0 3 26 27 57 52 l57 45 63 -107 63 -107 0 163 c0 176 -1
178 -54 143 l-29 -20 -61 53 c-55 48 -287 216 -297 216 -2 -1 -15 -10 -28 -21z
m159 -631 c-78 -294 -78 -295 -100 -301 -11 -3 -30 3 -42 13 l-23 18 23 183
c14 113 27 186 35 190 6 4 43 28 82 53 38 24 71 43 73 41 2 -2 -19 -91 -48
-197z m-747 149 c40 -24 132 -78 205 -121 l132 -78 0 -68 0 -68 -212 125 -213
125 0 64 c0 35 4 64 8 64 5 0 41 -19 80 -43z m142 -263 l195 -116 0 -64 c0
-35 -3 -64 -6 -64 -11 0 -399 232 -409 244 -8 10 -12 101 -6 125 2 7 38 -12
226 -125z m193 -357 c2 -37 1 -67 -2 -67 -10 0 -401 233 -411 245 -8 10 -12
86 -6 127 1 4 94 -48 209 -116 l207 -123 3 -66z m-166 -15 l167 -97 1 -67 c0
-38 -2 -68 -4 -68 -8 0 -411 243 -416 250 -4 7 -5 90 -1 123 1 5 20 -3 44 -18
23 -14 117 -69 209 -123z m6 -182 l162 -95 0 -68 0 -69 -42 25 c-24 14 -119
70 -213 125 l-169 100 1 51 c2 90 -2 86 51 54 27 -15 121 -71 210 -123z"/>
<path d="M23590 29044 c-18 -18 -31 -23 -47 -19 -21 5 -22 3 -16 -27 9 -51 32
-88 53 -88 10 0 21 4 24 9 3 5 39 28 81 52 58 33 75 48 75 65 0 28 -17 34 -89
34 -49 0 -61 -4 -81 -26z"/>
<path d="M26972 28439 l3 -481 130 -78 c71 -44 131 -83 133 -89 2 -5 -7 -15
-20 -22 -33 -17 -33 -18 -12 -34 25 -19 48 -19 84 0 28 15 32 14 122 -41 51
-31 95 -58 98 -59 3 -2 127 70 275 159 l270 162 3 482 c1 296 -1 482 -7 482
-10 0 -519 -295 -534 -309 -7 -7 -203 101 -217 120 -3 3 -15 9 -27 13 -13 4
-23 11 -23 16 0 4 -12 13 -27 19 -16 6 -40 19 -55 29 -54 35 -185 112 -191
112 -4 0 -6 -216 -5 -481z m345 163 l133 -77 0 -57 0 -57 -132 79 c-73 44
-152 90 -175 104 -42 25 -43 26 -43 81 l0 56 43 -26 c23 -14 102 -60 174 -103z
m1 -149 l132 -78 0 -57 0 -57 -172 103 -173 102 -3 59 -3 58 43 -27 c24 -14
103 -61 176 -103z m0 -150 l132 -78 0 -52 c0 -29 -3 -53 -7 -53 -5 0 -82 44
-173 98 l-165 98 -3 58 -3 58 43 -26 c24 -14 103 -61 176 -103z m5 -153 l127
-75 0 -57 0 -57 -172 103 -173 103 -3 58 -3 57 49 -28 c26 -16 105 -63 175
-104z m-5 -147 l132 -78 0 -56 0 -57 -175 105 -175 105 0 55 0 55 43 -26 c23
-14 102 -60 175 -103z"/>
<path d="M34258 28500 c-62 -19 -107 -53 -129 -99 -12 -25 -32 -66 -44 -91
-29 -57 -55 -145 -55 -184 0 -87 60 -175 147 -217 68 -33 183 -31 291 6 45 15
82 31 82 35 0 3 -12 17 -26 31 -14 13 -38 44 -52 69 -23 38 -27 59 -30 141
l-4 96 36 40 c61 68 58 124 -7 163 -25 15 -49 20 -107 19 -41 0 -87 -4 -102
-9z"/>
<path d="M35120 28033 l0 -209 265 -151 265 -152 0 207 0 207 -256 150 c-141
83 -260 152 -265 153 -5 2 -9 -88 -9 -205z m459 -107 c20 -23 -3 -21 -50 6
-53 30 -54 56 -1 29 21 -11 44 -27 51 -35z m-129 -44 c0 -20 -84 29 -88 51 -3
15 4 13 42 -10 25 -15 46 -34 46 -41z m-188 24 c19 -13 39 -25 44 -27 49 -21
144 -84 144 -95 0 -15 0 -15 -164 81 -38 22 -71 46 -74 53 -6 18 11 15 50 -12z
m284 3 c19 -11 34 -25 34 -30 0 -10 -42 9 -75 35 -31 23 1 20 41 -5z m-225
-85 c8 -8 19 -14 22 -14 14 0 107 -62 107 -72 0 -5 -21 2 -47 17 -27 15 -71
40 -100 56 -81 44 -93 53 -93 67 0 14 74 -23 111 -54z m97 36 c29 -18 43 -40
25 -40 -15 0 -73 40 -73 50 0 15 11 12 48 -10z"/>
<path d="M36842 27608 l3 -583 150 -90 c83 -50 229 -139 327 -198 l176 -107
331 197 331 197 0 583 c0 415 -3 583 -11 583 -10 0 -85 -43 -521 -298 l-137
-80 -120 73 c-66 40 -126 75 -133 79 -7 3 -29 16 -48 28 -19 11 -44 26 -55 32
-21 12 -88 53 -120 74 -11 6 -31 18 -45 24 -14 7 -27 15 -30 18 -9 11 -81 50
-91 50 -6 0 -8 -219 -7 -582z m348 242 c80 -47 164 -97 188 -110 23 -13 42
-26 43 -29 5 -28 3 -131 -2 -131 -6 0 -408 237 -418 246 -5 5 -8 117 -3 127 4
9 11 5 192 -103z m55 -213 c94 -55 172 -102 174 -103 9 -8 6 -134 -4 -134 -5
1 -102 56 -215 123 l-204 122 1 53 c2 91 -1 87 41 61 20 -12 114 -67 207 -122z
m55 -216 l124 -76 1 -60 c1 -33 -1 -63 -2 -67 -2 -4 -58 26 -126 67 -67 40
-162 97 -212 126 l-90 54 1 60 c1 33 2 63 3 67 1 8 81 -38 301 -171z m-107
-118 c253 -148 232 -129 232 -202 -1 -34 -4 -62 -9 -62 -10 -2 -405 231 -412
243 -10 15 -11 128 -1 128 4 0 90 -48 190 -107z m-45 -154 c75 -45 168 -101
207 -123 l69 -42 0 -64 c0 -42 -4 -64 -12 -63 -6 2 -84 46 -174 99 -90 53
-181 107 -202 120 l-40 23 0 65 c-1 36 3 66 7 66 4 0 69 -37 145 -81z"/>
<path d="M21840 27747 c-51 -16 -140 -110 -178 -190 -55 -114 -67 -175 -66
-332 0 -119 4 -149 22 -200 44 -116 106 -176 202 -190 l45 -6 -31 19 c-90 57
-144 193 -145 363 0 124 21 224 71 327 51 108 118 174 192 193 l52 14 -39 7
c-53 9 -83 8 -125 -5z"/>
<path d="M21933 27661 c-59 -28 -108 -82 -147 -164 -43 -89 -59 -167 -59 -278
1 -147 52 -268 132 -309 49 -25 74 -25 126 -1 122 55 205 230 205 432 0 238
-118 384 -257 320z m195 -223 c25 -25 8 -57 -107 -206 -66 -84 -122 -154 -125
-155 -2 -1 -30 32 -61 73 -59 79 -67 113 -32 134 15 9 24 4 55 -32 l38 -44 92
121 c91 119 113 136 140 109z"/>
<path d="M34630 27063 c-32 -17 -55 -23 -77 -19 l-33 5 15 -36 c12 -29 13 -38
3 -44 -7 -5 -70 -7 -140 -6 -71 1 -128 1 -128 -1 0 -2 15 -65 34 -140 18 -75
48 -199 66 -276 l33 -139 56 6 c149 16 362 154 521 338 71 83 72 77 -34 184
-53 54 -90 81 -146 107 -103 49 -117 50 -170 21z"/>
<path d="M33680 26752 c0 -134 5 -152 45 -152 51 0 57 46 23 188 -20 83 -24
92 -45 92 -23 0 -23 -1 -23 -128z"/>
<path d="M36397 26464 c-4 -4 -7 -60 -7 -125 0 -94 3 -121 16 -133 21 -21 47
-20 68 3 14 15 16 37 14 137 l-3 119 -40 3 c-23 2 -44 0 -48 -4z"/>
<path d="M15980 26270 c-66 -40 -365 -216 -510 -300 -256 -149 -427 -248 -498
-290 l-73 -42 3 -141 3 -141 115 -67 c63 -36 115 -70 117 -75 1 -5 -52 -40
-119 -79 -66 -38 -120 -73 -120 -77 1 -5 2 -68 2 -140 l1 -133 116 -66 c64
-36 118 -70 120 -75 1 -5 -52 -41 -120 -80 l-122 -71 3 -140 3 -139 96 -54
c53 -30 113 -65 134 -76 36 -20 37 -22 21 -36 -9 -9 -70 -46 -135 -83 l-118
-67 3 -141 3 -142 210 -121 c116 -67 367 -212 558 -323 192 -110 353 -201 359
-201 9 0 152 81 903 510 127 72 233 134 236 138 4 4 9 69 12 144 l4 137 -138
78 c-76 43 -139 80 -139 83 0 3 59 38 131 79 72 41 132 79 134 85 2 6 5 70 8
142 l5 130 -124 70 c-68 38 -123 74 -124 79 0 6 52 39 116 74 64 35 117 69
119 75 2 6 6 70 8 142 l5 131 -121 69 c-66 38 -122 74 -123 79 -2 6 49 39 112
75 64 36 118 70 119 75 2 6 6 69 8 142 l5 132 -182 103 c-99 56 -349 198 -554
315 -205 117 -385 219 -400 227 -25 12 -31 11 -72 -14z m447 -401 c214 -121
392 -224 396 -229 5 -4 -88 -63 -205 -130 -117 -68 -293 -170 -391 -227 -98
-57 -179 -103 -182 -103 -2 0 -129 72 -282 161 -153 88 -329 190 -390 226 -62
35 -113 68 -113 71 0 9 751 450 767 451 7 1 187 -98 400 -220z m-1076 -769
c10 -6 19 -17 19 -25 0 -16 30 -35 55 -35 8 0 148 -76 311 -170 262 -151 298
-169 317 -158 12 6 147 82 301 170 153 87 289 158 303 158 37 0 67 19 54 34
-8 9 -5 16 13 25 20 11 29 10 66 -9 23 -12 38 -25 34 -30 -5 -5 -182 -108
-393 -230 -329 -191 -387 -221 -405 -212 -65 32 -761 441 -763 449 -2 5 11 17
29 25 41 21 36 20 59 8z m-1 -573 c8 -7 20 -21 26 -32 6 -11 23 -21 37 -23 14
-2 159 -79 321 -173 163 -93 297 -169 300 -169 2 0 138 77 302 171 200 114
306 169 320 166 12 -2 32 4 45 14 13 10 18 19 12 19 -22 0 -14 16 13 29 22 10
32 8 65 -11 31 -17 37 -24 27 -33 -19 -17 -764 -445 -774 -445 -16 1 -778 446
-781 456 -2 6 11 18 29 26 40 20 40 20 58 5z m1473 -627 c8 -7 -39 -36 -417
-255 -375 -217 -358 -209 -386 -193 -14 8 -133 77 -265 153 -132 76 -296 171
-365 210 -68 40 -125 76 -127 81 -2 5 17 20 42 33 40 21 49 22 73 12 26 -12
26 -13 7 -27 -20 -15 -20 -15 -1 -30 23 -16 35 -17 56 -4 15 9 50 -8 212 -103
20 -12 87 -51 150 -87 62 -35 127 -72 143 -82 17 -10 44 -25 61 -33 l32 -16
290 166 c269 154 292 165 316 154 20 -10 32 -9 53 0 l27 13 -24 18 c-26 20
-26 21 5 38 16 9 29 6 65 -15 25 -14 49 -29 53 -33z"/>
<path d="M15698 25837 c-180 -105 -328 -195 -328 -200 0 -4 11 -12 24 -18 21
-10 33 -6 83 24 133 80 170 101 203 120 58 32 273 158 312 183 l36 23 259
-148 c411 -235 384 -222 418 -197 21 15 64 -12 -386 244 -146 83 -272 154
-280 157 -8 2 -161 -82 -341 -188z"/>
<path d="M34716 26265 c-3 -9 -6 -27 -6 -39 0 -48 -73 -78 -124 -51 -15 8 -30
15 -32 15 -11 0 -2 -39 16 -67 17 -28 25 -33 59 -33 44 0 164 26 193 41 14 8
18 21 17 64 -1 30 -7 59 -13 64 -6 4 -32 11 -57 15 -38 6 -48 4 -53 -9z"/>
<path d="M35000 26090 c0 -73 -3 -90 -15 -90 -11 0 -15 12 -15 51 0 45 -2 50
-17 44 -34 -14 -67 -13 -96 2 l-30 15 8 -43 c4 -24 8 -52 8 -61 1 -14 11 -16
59 -14 l57 3 3 -66 c3 -58 5 -66 23 -66 18 0 20 8 23 71 l3 71 52 12 c77 17
117 44 117 79 0 40 -25 58 -94 71 -92 17 -86 22 -86 -79z"/>
<path d="M33814 25996 c-3 -7 -4 -38 -2 -67 3 -47 6 -54 26 -57 21 -3 22 0 22
67 0 65 -2 71 -20 71 -11 0 -23 -6 -26 -14z"/>
<path d="M35400 25882 c-13 -5 -13 -212 -1 -245 12 -30 43 -42 71 -27 19 10
20 20 20 144 l0 133 -40 -1 c-22 0 -44 -2 -50 -4z"/>
<path d="M34410 25680 c-9 -6 -11 -24 -7 -65 11 -104 45 -101 49 4 3 52 0 64
-13 66 -9 2 -22 -1 -29 -5z"/>
<path d="M18110 24529 l-565 -330 3 -139 3 -139 119 -68 c66 -37 118 -72 117
-77 -2 -5 -54 -39 -117 -75 l-115 -67 -5 -60 c-3 -32 -4 -96 -2 -141 l3 -82
119 -68 c66 -37 118 -72 116 -78 -1 -5 -55 -40 -119 -78 l-118 -69 3 -141 3
-141 125 -72 c69 -40 125 -77 125 -83 0 -6 -56 -44 -125 -84 l-125 -72 0 -144
0 -143 225 -130 c494 -286 881 -509 893 -514 7 -2 174 88 372 202 198 113 456
260 573 327 l212 122 0 132 c0 73 0 136 0 141 0 4 -57 40 -127 80 -71 41 -132
77 -136 82 -5 4 52 42 127 84 l135 77 3 140 3 140 -122 70 c-68 39 -123 74
-123 79 0 4 54 38 119 75 l120 67 3 140 3 140 -129 73 -128 73 38 24 c22 14
78 47 127 73 l87 49 0 133 c0 73 1 136 3 139 1 4 -74 50 -168 104 -359 205
-986 560 -988 560 -1 0 -256 -149 -567 -331z m968 -99 c216 -122 391 -227 389
-233 -1 -5 -158 -99 -347 -209 -190 -110 -363 -210 -385 -223 l-41 -23 -179
104 c-99 57 -276 159 -393 226 -117 67 -211 126 -210 130 3 9 760 456 768 453
3 -1 182 -102 398 -225z m392 -802 c0 -10 11 -4 -425 -255 -187 -108 -345
-196 -350 -196 -6 0 -84 42 -175 95 -91 52 -265 152 -387 223 -123 70 -223
131 -223 136 0 5 14 16 31 25 25 12 37 14 55 5 13 -6 24 -17 24 -24 0 -15 46
-44 56 -35 3 3 140 -72 306 -167 l300 -172 304 173 c203 115 310 171 323 167
25 -6 68 21 50 32 -8 6 -5 13 12 26 23 17 25 17 61 -4 21 -11 38 -24 38 -29z
m-1469 -538 c10 -6 19 -17 19 -25 0 -18 31 -35 62 -35 13 0 28 -4 34 -9 5 -5
25 -18 44 -29 19 -11 145 -83 279 -160 222 -128 245 -140 265 -128 147 92 586
330 604 328 13 -1 32 3 43 9 16 8 18 13 9 24 -10 12 -7 17 15 27 22 10 32 9
61 -7 19 -10 34 -23 34 -29 -1 -6 -175 -111 -389 -234 l-388 -222 -264 153
c-145 84 -321 186 -391 226 -71 40 -128 76 -128 79 0 8 51 41 63 42 5 0 17 -5
28 -10z m28 -589 c20 -15 21 -19 7 -24 -22 -9 -20 -24 3 -37 14 -7 27 -7 45 1
17 8 30 9 38 2 7 -6 38 -24 68 -40 30 -17 122 -69 204 -117 82 -47 181 -104
220 -126 l72 -39 35 21 c19 11 149 86 288 165 241 136 257 143 283 132 23 -9
34 -9 54 1 29 16 31 27 4 35 -26 8 -25 19 3 34 19 10 29 8 70 -15 26 -14 46
-31 44 -37 -2 -6 -176 -111 -388 -233 l-384 -223 -30 18 c-397 227 -755 437
-755 442 0 7 77 56 90 58 3 0 16 -8 29 -18z"/>
<path d="M18345 24401 c-175 -104 -321 -193 -322 -197 -2 -5 6 -15 17 -22 21
-13 40 -4 178 79 15 9 125 73 245 143 l218 127 157 -90 c86 -49 168 -96 182
-103 14 -7 68 -39 122 -71 53 -31 99 -57 103 -57 4 0 20 -9 36 -21 26 -18 34
-19 59 -9 17 7 30 15 29 19 0 9 -667 386 -687 388 -9 1 -161 -83 -337 -186z"/>
<path d="M13626 24399 c-112 -125 -144 -294 -75 -405 30 -49 105 -111 170
-142 l57 -27 -4 -45 c-4 -33 0 -54 14 -79 30 -55 45 -60 82 -24 74 72 197 57
250 -30 22 -36 27 -112 9 -150 -10 -22 -2 -36 78 -145 54 -74 96 -122 108
-124 11 -2 67 2 125 7 l105 10 22 87 c54 217 67 516 28 663 -64 243 -216 359
-520 396 -52 7 -135 9 -198 5 -96 -6 -110 -5 -135 12 -66 46 -66 46 -116 -9z"/>
<path d="M14729 23210 c-49 -8 -123 -39 -150 -61 -14 -12 -15 -27 -8 -109 10
-116 5 -126 -88 -172 -67 -33 -69 -33 -209 -33 -95 0 -146 4 -155 12 -12 10
-38 -2 -139 -64 -69 -42 -151 -91 -182 -110 -52 -30 -158 -126 -158 -142 0 -3
24 -6 53 -7 141 -2 227 -85 263 -253 18 -87 18 -320 -1 -491 -28 -252 -140
-989 -165 -1080 -5 -19 -23 -57 -40 -84 -27 -43 -30 -54 -25 -102 8 -82 14
-151 20 -239 3 -44 8 -98 10 -120 2 -22 7 -80 11 -130 3 -49 8 -92 9 -93 14
-15 451 -23 530 -11 l30 5 75 298 75 297 295 185 c393 247 453 286 467 298 9
9 6 53 -17 196 -27 168 -33 256 -65 974 l-36 789 -29 57 c-31 61 -97 128 -157
158 -32 17 -144 45 -162 41 -3 -1 -27 -5 -52 -9z"/>
<path d="M3874 22114 c-11 -75 3 -555 21 -704 9 -74 27 -189 40 -255 13 -66
26 -131 28 -145 38 -211 184 -516 315 -657 47 -51 36 -55 -58 -23 -77 26 -162
78 -221 135 -52 50 -59 47 -59 -28 1 -91 85 -173 222 -218 62 -20 93 -24 203
-24 110 0 141 4 203 24 140 46 227 133 220 220 l-3 40 -54 -45 c-56 -47 -146
-94 -216 -113 -65 -18 -72 -14 -38 22 98 104 204 299 273 503 l38 114 -92 92
-91 93 -2 -40 c-15 -246 -47 -422 -107 -600 -62 -180 -73 -205 -94 -205 -15 0
-23 18 -41 98 -81 353 -121 618 -136 902 -7 138 -27 206 -127 440 -46 108
-173 361 -203 403 -12 18 -14 15 -21 -29z"/>
<path d="M12464 21707 l-42 -52 17 -68 c9 -38 20 -65 24 -61 4 4 7 2 7 -5 0
-7 5 -9 10 -6 6 3 10 2 10 -3 0 -8 110 -72 124 -72 3 0 6 25 6 55 0 55 0 55
-40 72 -44 20 -44 18 -60 121 -7 39 -13 72 -14 72 0 0 -20 -24 -42 -53z"/>
<path d="M10946 21691 c-3 -5 215 -138 484 -297 269 -159 490 -291 490 -294 0
-3 -118 -20 -262 -38 -145 -18 -300 -38 -345 -44 l-81 -10 0 -119 c1 -66 -2
-122 -5 -125 -3 -3 -185 94 -404 217 -630 352 -645 360 -662 357 -12 -2 -17
-17 -19 -63 l-2 -60 97 -54 c54 -30 211 -118 348 -196 138 -78 327 -185 421
-238 93 -53 177 -99 186 -102 18 -7 41 6 573 316 89 52 105 58 131 50 47 -13
88 9 107 57 14 36 28 47 115 96 101 57 127 77 120 96 -2 6 -26 24 -54 40 l-52
29 -65 -82 c-35 -45 -74 -90 -85 -100 -20 -19 -28 -15 -523 277 -276 163 -503
296 -505 296 -1 0 -5 -4 -8 -9z"/>
<path d="M24307 20193 c-4 -3 -7 -48 -7 -99 l0 -93 390 -222 390 -223 0 -344
c0 -226 3 -341 10 -337 6 4 10 163 10 445 l0 439 -386 220 c-213 122 -390 221
-394 221 -3 0 -10 -3 -13 -7z"/>
<path d="M34055 20096 c-11 -8 -18 -16 -15 -19 4 -3 857 -499 1283 -746 l147
-85 0 -429 0 -429 -37 23 c-21 13 -58 35 -83 51 l-45 27 -3 -114 c-1 -63 -5
-115 -8 -115 -10 0 -558 312 -576 328 -15 13 -18 33 -18 137 0 100 -3 124 -15
129 -13 5 -15 -15 -15 -142 l1 -147 314 -178 315 -178 2 -247 3 -247 1259
-717 c693 -395 1261 -718 1263 -718 1 0 3 266 3 591 l0 591 38 -22 c20 -13
148 -88 285 -167 l247 -145 0 -64 0 -65 -47 28 c-27 15 -122 71 -213 124 -148
87 -190 104 -190 79 0 -10 -28 6 510 -305 245 -142 447 -262 450 -266 3 -4 5
-134 4 -288 0 -250 2 -281 15 -279 14 3 16 39 16 297 l0 293 -252 147 -253
146 0 86 0 87 -277 162 c-153 89 -289 170 -303 180 l-25 17 -5 373 -5 373
-1260 738 -1260 738 -3 -161 c-2 -132 -5 -159 -16 -155 -8 3 -205 117 -438
252 -233 136 -495 289 -584 341 -89 51 -168 96 -175 99 -8 3 -23 -1 -34 -9z
m2965 -2356 c0 -883 0 -890 -20 -890 -20 0 -20 7 -20 890 0 883 0 890 20 890
20 0 20 -7 20 -890z m285 594 l215 -126 0 -48 c0 -27 -3 -51 -7 -53 -5 -3
-102 51 -218 118 l-210 123 -3 56 c-2 31 0 56 3 56 3 0 102 -57 220 -126z
m-652 -149 l207 -120 0 -58 0 -59 -42 25 c-24 14 -119 70 -213 125 l-170 100
-3 57 c-2 31 1 55 6 54 5 -2 102 -58 215 -124z m652 -34 l200 -119 3 -51 c2
-28 0 -51 -3 -51 -10 0 -387 221 -407 238 -22 18 -26 102 -5 102 6 -1 102 -54
212 -119z m-1387 -11 l181 -105 1 -58 0 -58 -27 15 c-16 8 -100 57 -188 109
l-160 94 -3 58 c-2 32 1 55 6 54 5 -2 91 -51 190 -109z m102 -273 l245 -144 3
-57 c2 -31 1 -56 -2 -56 -2 0 -125 71 -273 158 l-268 157 -3 58 -3 58 28 -15
c15 -8 138 -80 273 -159z m359 3 l231 -135 0 -58 c0 -52 -2 -57 -17 -48 -10 6
-117 68 -238 139 l-220 129 -3 58 c-2 32 1 55 6 54 5 -2 113 -65 241 -139z
m326 22 l150 -88 3 -58 3 -57 -34 18 c-18 10 -100 56 -180 103 l-147 85 0 58
0 58 28 -15 c15 -9 95 -55 177 -104z m50 -243 l105 -61 0 -54 c0 -30 -3 -54
-6 -54 -3 0 -52 27 -110 61 l-104 61 0 54 c0 30 2 54 5 54 3 0 53 -27 110 -61z
m-170 -117 l270 -158 3 -52 c2 -29 0 -52 -3 -52 -3 0 -129 72 -280 161 l-275
161 0 49 c0 27 3 49 8 49 4 0 129 -72 277 -158z"/>
<path d="M25320 18427 l0 -734 -38 -11 c-62 -19 -85 -52 -90 -129 -3 -36 1
-90 7 -119 12 -53 13 -54 50 -54 30 0 40 5 55 31 10 17 16 39 13 49 -10 38 49
81 68 50 8 -14 25 -3 25 16 0 9 13 29 29 45 l30 30 138 -79 c136 -77 138 -79
141 -116 6 -71 3 -71 -147 14 -129 74 -170 92 -157 72 5 -8 -8 -85 -19 -113
-5 -13 25 -34 132 -94 76 -43 152 -86 169 -96 l32 -19 38 55 38 56 -28 22
c-24 20 -27 28 -24 70 l3 48 125 -72 c69 -39 178 -102 243 -141 l117 -69 0
-44 c0 -24 -3 -46 -7 -48 -5 -2 -79 37 -165 88 -181 106 -193 108 -227 38 -12
-24 -19 -48 -16 -52 2 -5 304 -179 669 -387 l665 -379 1 -544 c0 -507 1 -545
17 -557 21 -15 205 -128 266 -163 23 -13 58 -35 77 -50 19 -15 45 -33 58 -40
12 -7 20 -17 16 -23 -4 -7 -3 -8 4 -4 14 9 104 -42 96 -55 -3 -5 1 -6 9 -3 31
11 26 -17 -5 -35 -58 -34 -62 -41 -38 -58 19 -13 25 -12 75 16 30 17 59 31 64
31 6 0 69 -36 140 -80 72 -44 135 -80 140 -80 6 0 217 124 471 275 l460 275 0
815 c0 689 -2 815 -14 815 -15 0 -907 -518 -917 -533 -6 -8 -138 66 -150 85
-3 5 -9 8 -12 6 -4 -1 -17 6 -29 17 -13 10 -25 19 -28 18 -3 0 -21 10 -40 22
-19 12 -48 30 -65 39 -16 9 -43 26 -60 36 -16 11 -38 23 -47 26 -10 4 -18 10
-18 14 0 5 -12 13 -27 19 -29 11 -64 32 -73 42 -9 10 -55 33 -62 31 -5 -1 -8
1 -8 6 0 4 -21 19 -47 32 -26 14 -54 31 -61 38 -7 6 -17 12 -22 12 -4 0 -32
16 -61 35 -30 19 -59 35 -66 35 -7 0 -13 5 -13 10 0 6 -7 10 -15 10 -8 0 -15
9 -15 20 0 18 3 19 21 9 17 -9 28 -7 55 7 19 10 34 22 34 25 0 4 -52 37 -116
74 -63 37 -118 73 -120 80 -3 7 -4 31 -2 54 l3 41 164 -96 c181 -106 163 -102
248 -49 l33 20 0 402 0 401 -152 89 c-792 464 -1980 1159 -2005 1175 l-33 20
0 -735z m441 75 l314 -179 3 -52 c2 -42 0 -51 -10 -44 -8 4 -154 88 -326 186
l-312 178 0 45 c0 24 4 44 9 44 4 0 150 -80 322 -178z m-161 -101 l155 -88 3
-53 c2 -28 -1 -50 -6 -49 -4 2 -79 44 -165 92 l-157 89 0 49 c0 27 3 49 8 49
4 0 77 -40 162 -89z m66 -231 c120 -68 222 -129 226 -135 10 -13 10 -95 1 -95
-5 0 -109 58 -233 128 l-225 127 -3 54 c-2 29 1 51 6 50 5 -2 107 -60 228
-129z m707 -20 l247 -144 0 -48 c0 -26 -4 -48 -8 -48 -5 0 -119 64 -253 143
l-244 143 -3 53 c-2 29 1 51 5 50 5 -2 120 -69 256 -149z m-265 -40 l167 -98
3 -51 c2 -28 1 -51 -1 -51 -3 0 -112 62 -243 138 l-239 139 -3 52 -3 53 76
-42 c42 -23 152 -86 243 -140z m675 36 l187 -110 0 -48 0 -48 -48 27 c-26 16
-114 66 -195 113 l-147 85 0 48 c0 27 4 47 8 45 5 -1 93 -52 195 -112z m-580
-286 c126 -73 231 -139 234 -146 2 -6 3 -30 1 -53 l-3 -41 -252 147 -253 148
0 54 c0 53 0 53 23 39 12 -8 125 -75 250 -148z m317 10 c107 -63 203 -120 213
-128 21 -19 25 -105 4 -100 -7 2 -106 57 -220 123 l-206 120 -1 53 c0 29 3 51
8 49 4 -2 95 -55 202 -117z m753 -2 l117 -69 0 -50 c0 -27 -3 -49 -7 -49 -5 1
-78 42 -163 93 l-155 93 -3 53 -3 54 48 -28 c26 -16 101 -59 166 -97z m-458
24 l150 -88 3 -52 c2 -29 1 -52 -1 -52 -3 0 -76 42 -163 93 l-159 93 -3 47
c-2 34 1 47 10 47 7 0 81 -40 163 -88z m-1052 -267 l297 -169 0 -49 c0 -27 -4
-47 -8 -45 -4 2 -148 83 -320 181 l-312 178 0 51 c0 50 0 50 23 36 12 -8 156
-90 320 -183z m1115 35 l92 -54 0 -53 0 -53 -87 52 c-49 28 -94 55 -100 61
-14 10 -19 111 -5 104 4 -2 49 -28 100 -57z m450 -18 l62 -36 0 -54 0 -53 -42
26 c-24 14 -69 40 -100 58 l-58 32 0 53 0 54 38 -22 c20 -12 65 -39 100 -58z
m-585 -102 l227 -132 0 -50 c0 -50 0 -50 -22 -36 -13 8 -125 75 -250 148
l-228 132 0 50 c0 50 0 50 23 36 12 -8 124 -75 250 -148z m-389 -254 c131 -77
240 -145 243 -152 2 -6 3 -30 1 -53 l-3 -42 -237 139 c-130 76 -243 144 -252
151 -20 17 -23 104 -3 99 7 -2 120 -66 251 -142z m407 0 l194 -114 3 -51 c2
-28 -1 -51 -5 -50 -4 0 -93 51 -198 113 l-190 112 -3 52 c-2 29 -1 52 1 52 2
0 92 -51 198 -114z m-243 -295 l212 -124 0 -43 c0 -24 -4 -44 -9 -44 -10 0
-395 223 -418 242 -14 11 -18 102 -5 96 4 -1 103 -59 220 -127z m312 16 l125
-73 3 -52 c2 -29 1 -52 -1 -52 -3 0 -76 42 -163 93 l-159 93 -3 52 -3 53 38
-20 c21 -11 94 -53 163 -94z m32 -214 l98 -57 0 -48 c0 -26 -3 -48 -8 -48 -10
0 -163 89 -184 108 -17 15 -27 102 -11 102 3 0 50 -26 105 -57z m849 -397
l294 -174 3 -97 c2 -83 1 -97 -12 -92 -8 3 -127 72 -263 153 -136 81 -264 156
-283 168 -19 11 -37 23 -40 27 -3 4 -4 45 -3 91 1 94 2 98 7 98 2 0 136 -78
297 -174z m-6 -251 c138 -82 262 -155 277 -164 27 -16 28 -18 28 -114 0 -90
-1 -97 -17 -88 -71 38 -578 343 -582 350 -5 7 -6 148 -2 185 1 4 11 2 24 -6
12 -8 135 -81 272 -163z m-37 -231 c136 -81 268 -160 295 -176 l47 -30 0 -94
c0 -52 -2 -94 -5 -94 -12 0 -571 334 -585 349 -11 13 -15 39 -13 102 1 93 1
89 9 89 3 0 116 -66 252 -146z m90 -308 l252 -149 0 -99 0 -100 -32 20 c-18
11 -152 91 -298 177 -146 86 -267 158 -269 160 -2 2 -3 39 -3 82 0 127 -5 119
50 86 27 -15 162 -95 300 -177z m252 -498 c0 -54 -2 -98 -4 -98 -2 0 -133 77
-291 170 -158 94 -291 170 -296 170 -5 0 -9 8 -10 18 -3 53 -4 169 -1 178 2 6
138 -68 302 -165 l299 -176 1 -97z"/>
<path d="M8662 18824 l3 -306 37 -34 c40 -37 71 -42 127 -23 58 21 61 36 61
369 l0 300 -116 0 -115 0 3 -306z"/>
<path d="M13331 18759 c-30 -5 -57 -11 -59 -14 -6 -6 -25 -346 -19 -351 14
-14 144 -41 382 -79 165 -27 213 -15 245 58 21 48 40 142 31 154 -3 5 -27 21
-53 36 -39 23 -59 27 -119 27 -97 0 -187 17 -235 43 -36 21 -40 27 -48 80 -9
55 -10 57 -40 56 -17 -1 -55 -5 -85 -10z"/>
<path d="M24288 18638 c-10 -182 27 -498 73 -618 42 -110 89 -193 133 -234 21
-19 21 -19 -14 -12 -19 3 -60 23 -90 44 -72 49 -70 48 -70 14 0 -42 41 -87 98
-109 62 -23 172 -23 234 0 51 20 108 76 108 107 0 26 -6 25 -47 -6 -39 -29
-95 -54 -120 -53 -10 0 -13 3 -6 6 35 14 124 181 155 290 8 30 6 36 -36 75
l-44 43 -7 -75 c-9 -103 -22 -160 -58 -262 -43 -120 -44 -120 -78 32 -30 139
-46 242 -53 360 -5 75 -15 125 -33 175 -26 69 -129 285 -137 285 -2 0 -6 -28
-8 -62z"/>
<path d="M23075 18684 c-172 -28 -309 -104 -354 -198 -63 -130 28 -265 223
-331 222 -76 522 -31 656 97 23 22 48 56 56 74 19 45 18 118 -2 160 -34 72
-143 144 -269 178 -60 17 -254 29 -310 20z m-52 -230 c9 -53 17 -97 19 -99 2
-1 113 10 248 25 135 16 248 26 253 23 4 -2 7 -23 7 -46 l0 -42 -288 -31
c-158 -18 -289 -30 -291 -28 -2 2 -14 65 -27 141 -26 150 -25 153 32 153 l31
0 16 -96z"/>
<path d="M12530 18379 c-102 -23 -171 -56 -187 -89 -16 -31 -17 -124 -2 -152
14 -26 153 -91 242 -113 l67 -17 0 -134 c0 -121 2 -136 20 -154 25 -25 52 -25
74 -1 14 16 18 40 18 141 l1 122 36 -5 c20 -3 81 -13 136 -21 124 -20 168 -20
204 -1 37 19 70 96 78 181 6 65 6 66 -16 59 -38 -12 -263 -9 -326 4 -33 7 -75
21 -92 32 l-33 18 0 -103 0 -102 -37 2 c-21 1 -41 2 -45 3 -5 1 -8 80 -8 176
l0 175 -22 -1 c-13 0 -61 -9 -108 -20z"/>
<path d="M23737 18316 c-37 -91 -170 -180 -327 -220 -36 -9 -110 -19 -166 -23
-269 -16 -517 79 -604 230 l-30 52 0 -46 c0 -111 74 -214 201 -276 91 -45 144
-61 269 -79 63 -9 214 -4 277 10 15 4 39 8 53 11 44 8 151 53 201 85 101 66
153 152 147 248 l-3 52 -18 -44z"/>
<path d="M15439 17933 c-1 -172 0 -186 19 -200 23 -18 56 -16 75 5 14 16 17
43 17 170 l0 152 -55 0 -55 0 -1 -127z"/>
<path d="M21785 17860 c-216 -32 -365 -144 -365 -275 0 -61 19 -102 70 -152
153 -148 507 -181 730 -68 155 78 211 213 136 326 -85 128 -339 203 -571 169z
m-45 -219 c7 -49 15 -93 19 -99 4 -6 98 1 251 18 175 19 247 24 253 16 4 -6 6
-27 5 -46 l-3 -35 -285 -32 c-157 -17 -288 -28 -291 -25 -4 4 -17 67 -29 141
-24 147 -24 151 36 151 l31 0 13 -89z"/>
<path d="M11082 17403 c4 -322 6 -336 58 -366 55 -33 133 -13 162 42 10 20 14
100 16 324 l3 297 -121 0 -121 0 3 -297z"/>
<path d="M21331 17485 c-2 -116 70 -212 209 -279 38 -19 70 -33 70 -31 0 2 24
-4 53 -14 28 -10 55 -18 60 -19 4 0 40 -3 80 -8 99 -10 186 -7 277 11 14 3 34
7 45 9 53 10 185 70 230 104 85 64 138 168 121 236 l-7 28 -23 -44 c-50 -96
-207 -184 -381 -215 -108 -18 -287 -13 -385 12 -156 41 -310 148 -337 235 -11
34 -11 34 -12 -25z"/>
<path d="M25097 17331 l-25 -30 4 -356 c2 -196 8 -364 13 -373 4 -9 10 -105
11 -212 5 -274 5 -286 -6 -465 -13 -232 -12 -297 8 -326 16 -25 18 -25 85 -17
37 4 85 14 105 23 l37 14 7 -44 c3 -25 4 -55 1 -66 -3 -12 -3 -18 0 -15 4 3
11 -4 18 -17 10 -20 18 -22 74 -20 69 2 154 36 159 64 5 25 -25 48 -70 55
l-40 7 5 61 c3 34 5 189 5 346 -1 157 0 440 1 630 l3 345 -37 35 c-21 19 -57
61 -81 93 -68 92 -69 157 -1 175 l32 9 -31 16 c-20 10 -44 14 -72 10 -52 -7
-89 15 -94 54 -3 25 -7 28 -44 31 -36 3 -45 -1 -67 -27z m207 -1311 c9 -52 19
-157 22 -232 l7 -137 -47 14 c-25 8 -50 15 -54 15 -10 1 -5 56 24 264 13 99
24 182 25 185 2 14 9 -20 23 -109z"/>
<path d="M13993 17254 c-9 -24 7 -297 19 -311 15 -19 62 -16 81 5 14 16 17 43
17 170 l0 152 -55 0 c-41 0 -57 -4 -62 -16z"/>
<path d="M23865 16494 c-55 -30 -124 -66 -152 -80 -54 -26 -57 -31 -44 -87 l6
-28 60 39 c33 21 113 71 178 111 107 66 116 74 100 87 -28 21 -41 17 -148 -42z"/>
<path d="M32878 16503 c-41 -20 -95 -67 -121 -103 -23 -33 -23 -132 0 -151 18
-15 153 -20 189 -6 17 6 23 1 38 -30 13 -26 20 -33 24 -23 18 56 96 82 108 36
3 -13 1 -33 -5 -44 -6 -12 -11 -57 -11 -102 0 -71 -3 -84 -24 -107 -26 -28
-89 -40 -152 -29 l-36 7 6 50 7 49 -46 0 c-33 0 -51 6 -67 22 l-21 21 -35 -38
-35 -38 9 -171 c12 -234 9 -471 -9 -594 -9 -57 -17 -105 -19 -106 -1 -2 -66
-47 -143 -101 -156 -109 -285 -208 -339 -259 -51 -48 -48 -70 22 -138 100 -98
390 -299 449 -312 17 -4 61 0 99 9 259 60 528 223 595 363 18 37 20 53 14 114
-3 39 -16 105 -27 147 -49 184 -59 248 -65 410 l-6 165 -28 -100 c-51 -182
-43 -172 -271 -355 -111 -90 -205 -167 -207 -172 -1 -4 -17 -27 -35 -50 -39
-52 -72 -59 -106 -22 -22 24 -23 28 -11 58 14 34 17 53 10 77 -2 9 9 21 31 32
19 10 107 91 196 180 l161 163 22 139 c28 177 66 323 88 349 10 11 33 26 51
34 65 27 142 -23 142 -93 0 -30 3 -34 25 -34 l26 0 -18 33 c-15 27 -18 62 -20
242 -1 116 -4 233 -7 261 -6 66 -37 127 -78 152 -36 22 -142 47 -157 37 -5 -3
-27 4 -48 15 -57 29 -120 34 -165 13z"/>
<path d="M36330 16200 c-9 -6 -10 -10 -3 -10 6 0 15 5 18 10 8 12 4 12 -15 0z"/>
<path d="M36270 16190 c-9 -6 -10 -10 -3 -10 6 0 15 5 18 10 8 12 4 12 -15 0z"/>
<path d="M35060 16035 c0 -7 30 -13 34 -7 3 4 -4 9 -15 9 -10 1 -19 0 -19 -2z"/>
<path d="M35666 16028 c3 -5 10 -6 15 -3 13 9 11 12 -6 12 -8 0 -12 -4 -9 -9z"/>
<path d="M36016 16018 c3 -5 10 -6 15 -3 13 9 11 12 -6 12 -8 0 -12 -4 -9 -9z"/>
<path d="M25475 15400 c-4 -6 -11 -7 -17 -4 -7 4 -8 2 -4 -5 6 -9 11 -9 22 0
14 11 18 19 10 19 -3 0 -8 -5 -11 -10z"/>
<path d="M27600 14906 c0 -2 8 -10 18 -17 15 -13 16 -12 3 4 -13 16 -21 21
-21 13z"/>
<path d="M32317 13908 c-15 -15 -26 -18 -50 -13 -57 11 -75 8 -142 -29 -69
-39 -101 -81 -89 -118 6 -21 10 -21 161 -15 84 4 163 11 173 17 13 7 20 21 20
39 0 31 -39 142 -49 140 -3 0 -14 -10 -24 -21z"/>
<path d="M32696 13764 c-16 -23 -23 -25 -58 -20 -35 6 -44 2 -98 -39 -70 -54
-90 -80 -90 -116 0 -52 16 -53 177 -13 81 20 154 41 161 47 6 5 12 19 12 31 0
24 -59 128 -75 132 -5 2 -18 -8 -29 -22z"/>
</g>
</svg>
